<svg width="608" height="269" viewBox="0 0 608 269" fill="none" xmlns="http://www.w3.org/2000/svg">
<path d="M34.8571 0H29.7798C21.8884 0.0212358 14.3267 2.92306 8.7468 8.07153C3.16694 13.22 0.0223372 20.1967 0 27.4774V177.656C0.0230105 184.937 3.16787 191.913 8.74758 197.061C14.3273 202.21 21.8886 205.112 29.7798 205.133H34.8571C42.7485 205.112 50.3101 202.21 55.8902 197.061C61.4703 191.913 64.6157 184.937 64.6394 177.656V27.4774C64.6163 20.1964 61.4713 13.2198 55.891 8.07139C50.3107 2.92298 42.7487 0.0212328 34.8571 0ZM49.0991 183.318L32.3171 192.259L15.5377 183.318V165.439L32.3171 156.499L49.0991 165.439V183.318ZM49.0991 39.694L32.3171 48.6322L15.5377 39.694V21.8153L32.3171 12.8747L49.0991 21.8153V39.694Z" fill="black"/>
<path d="M70.3531 26.0405L70.3916 135.164L111.16 192.758C115.509 198.833 122.288 203.073 130.014 204.552C137.741 206.031 145.788 204.629 152.398 200.652L156.639 198.082C163.223 194.069 167.819 187.815 169.422 180.686C171.024 173.558 169.504 166.133 165.193 160.035L70.3531 26.0405ZM146.861 188.604L127.513 189.626L116.879 174.678L125.602 158.71L144.95 157.687L155.582 172.633L146.861 188.604Z" fill="black"/>
<path d="M123.121 174.347L129.022 163.532L142.128 162.838L149.332 172.962L143.431 183.782L130.325 184.473L123.121 174.347Z" fill="black"/>
<path d="M207.816 27.4774V177.656C207.838 184.937 210.983 191.913 216.563 197.062C222.143 202.21 229.704 205.112 237.596 205.133H242.673C250.564 205.111 258.124 202.209 263.704 197.06C269.283 191.912 272.427 184.936 272.45 177.656V27.4774C272.428 20.1971 269.284 13.2208 263.704 8.07236C258.125 2.92395 250.564 0.02186 242.673 0H237.596C229.704 0.0206144 222.142 2.92224 216.562 8.07085C210.982 13.2195 207.838 20.1965 207.816 27.4774V27.4774ZM223.351 165.439L240.133 156.499L256.915 165.439V183.318L240.133 192.259L223.351 183.318V165.439ZM223.351 21.8153L240.133 12.8747L256.915 21.8153V39.694L240.133 48.6322L223.351 39.694V21.8153Z" fill="black"/>
<path d="M229.109 180.43V168.32L240.477 162.267L251.843 168.32V180.43L240.477 186.488L229.109 180.43Z" fill="black"/>
<path d="M229.109 36.8109V24.7079L240.477 18.6528L251.843 24.7079V36.818L240.477 42.873L229.109 36.8109Z" fill="black"/>
<path d="M202.78 26.0405L139.8 115.02L169.726 157.301C173.218 162.192 175.198 167.87 175.45 173.722L202.741 135.164L202.78 26.0405Z" fill="black"/>
<path d="M21.2925 180.43V168.32L32.661 162.267L44.0294 168.32V180.43L32.661 186.488L21.2925 180.43Z" fill="black"/>
<path d="M21.2925 36.8109V24.7079L32.661 18.6528L44.0294 24.7079V36.818L32.661 42.873L21.2925 36.8109Z" fill="black"/>
<path d="M426 168.492V129.492L463 110L500 129.492V168.492L463 188L426 168.492Z" fill="#0D0000"/>
<path d="M433 164.994V132.994L463.5 117L494 132.994V164.994L463.5 181L433 164.994Z" fill="#FFFBFB"/>
<path d="M4.98047 257L4.98047 215.105H21.9727C30.5273 215.105 34.8047 218.846 34.8047 226.326C34.8047 234.471 28.9551 239.441 17.2559 241.238L16.1426 236.668C24.7363 235.398 29.0332 232.029 29.0332 226.561C29.0332 221.912 26.5137 219.588 21.4746 219.588H10.4004L10.4004 257H4.98047ZM45.3809 241.502C45.3809 248.904 48.457 252.605 54.6094 252.605C60.7617 252.605 63.8379 248.904 63.8379 241.502C63.8379 234.256 60.7617 230.633 54.6094 230.633C48.457 230.633 45.3809 234.256 45.3809 241.502ZM39.9609 241.619C39.9609 231.365 44.8438 226.238 54.6094 226.238C64.375 226.238 69.2578 231.365 69.2578 241.619C69.2578 251.854 64.375 256.971 54.6094 256.971C44.8828 256.971 40 251.854 39.9609 241.619ZM73.2129 226.238H78.6914L84.1406 250.35L92.1387 226.238H97.0312L105.586 250.35L110.508 226.238H116.25L108.223 257H103.271L94.4531 234.002L86.0742 257H81.0059L73.2129 226.238ZM134.385 226.238C143.135 226.238 147.51 230.564 147.51 239.217C147.51 240.447 147.422 241.766 147.246 243.172H125.654C125.654 249.461 129.326 252.605 136.67 252.605C140.166 252.605 143.271 252.215 145.986 251.434V255.828C143.271 256.609 139.971 257 136.084 257C125.518 257 120.234 251.756 120.234 241.268C120.234 231.248 124.951 226.238 134.385 226.238ZM125.654 238.66H142.295C142.178 233.27 139.541 230.574 134.385 230.574C128.916 230.574 126.006 233.27 125.654 238.66ZM154.805 257V226.238H158.467L159.434 230.164C162.129 227.547 165.371 226.238 169.16 226.238V230.75C165.488 230.75 162.51 232.049 160.225 234.646V257H154.805ZM187.295 226.238C196.045 226.238 200.42 230.564 200.42 239.217C200.42 240.447 200.332 241.766 200.156 243.172H178.564C178.564 249.461 182.236 252.605 189.58 252.605C193.076 252.605 196.182 252.215 198.896 251.434V255.828C196.182 256.609 192.881 257 188.994 257C178.428 257 173.145 251.756 173.145 241.268C173.145 231.248 177.861 226.238 187.295 226.238ZM178.564 238.66H195.205C195.088 233.27 192.451 230.574 187.295 230.574C181.826 230.574 178.916 233.27 178.564 238.66ZM228.369 232.508C226.182 231.453 223.682 230.926 220.869 230.926C214.678 230.926 211.582 234.217 211.582 240.799C211.582 248.592 214.678 252.488 220.869 252.488C223.682 252.488 226.182 252.107 228.369 251.346V232.508ZM233.789 255.154C230.059 256.385 225.459 257 219.99 257C210.83 257 206.25 251.668 206.25 241.004C206.25 231.16 211.113 226.238 220.84 226.238C223.496 226.238 226.006 226.727 228.369 227.703V215.105H233.789V255.154ZM262.646 251.639C264.424 252.205 266.582 252.488 269.121 252.488C275.957 252.488 279.375 248.592 279.375 240.799C279.375 234.217 276.279 230.926 270.088 230.926C267.275 230.926 264.795 231.453 262.646 232.508V251.639ZM257.227 215.105H262.646V227.703C264.971 226.727 267.461 226.238 270.117 226.238C279.844 226.238 284.707 231.16 284.707 241.004C284.707 251.668 279.6 257 269.385 257C264.971 257 260.918 256.58 257.227 255.74V215.105ZM288.369 226.238H294.258L302.959 250.262L311.953 226.238H317.695L304.922 257.908C302.656 263.494 299.258 266.98 294.727 268.367L292.646 264.529C296.084 263.025 298.584 260.574 300.146 257.176L288.369 226.238ZM343.447 215.105V252.605H365.361V257H338.027V215.105H343.447ZM375.205 241.502C375.205 248.904 378.281 252.605 384.434 252.605C390.586 252.605 393.662 248.904 393.662 241.502C393.662 234.256 390.586 230.633 384.434 230.633C378.281 230.633 375.205 234.256 375.205 241.502ZM369.785 241.619C369.785 231.365 374.668 226.238 384.434 226.238C394.199 226.238 399.082 231.365 399.082 241.619C399.082 251.854 394.199 256.971 384.434 256.971C374.707 256.971 369.824 251.854 369.785 241.619ZM429.551 256.121C427.012 256.707 424.277 257 421.348 257C410.41 257 404.941 251.678 404.941 241.033C404.941 231.17 410.41 226.238 421.348 226.238C424.277 226.238 427.012 226.531 429.551 227.117V231.512C427.012 230.926 424.18 230.633 421.055 230.633C413.926 230.633 410.361 234.1 410.361 241.033C410.361 248.748 413.926 252.605 421.055 252.605C424.18 252.605 427.012 252.313 429.551 251.727V256.121ZM435 247.713C435 241.404 439.16 238.25 447.48 238.25C450.156 238.25 452.832 238.445 455.508 238.836V235.936C455.508 232.4 452.744 230.633 447.217 230.633C444.053 230.633 440.811 231.121 437.49 232.098V227.703C440.811 226.727 444.053 226.238 447.217 226.238C456.357 226.238 460.928 229.422 460.928 235.789V257H457.881L456.006 253.953C452.939 255.984 449.6 257 445.986 257C438.662 257 435 253.904 435 247.713ZM447.48 242.645C442.773 242.645 440.42 244.305 440.42 247.625C440.42 250.945 442.275 252.605 445.986 252.605C449.736 252.605 452.91 251.609 455.508 249.617V243.23C452.832 242.84 450.156 242.645 447.48 242.645ZM475.459 215.105V257H470.039V215.105H475.459ZM484.277 255.535V250.848C487.891 252.02 491.543 252.605 495.234 252.605C500.137 252.605 502.588 251.141 502.588 248.211C502.588 245.477 500.879 244.109 497.461 244.109H493.066C486.426 244.109 483.105 241.082 483.105 235.027C483.105 229.168 487.373 226.238 495.908 226.238C499.58 226.238 503.223 226.727 506.836 227.703V232.391C503.223 231.219 499.58 230.633 495.908 230.633C490.791 230.633 488.232 232.098 488.232 235.027C488.232 237.762 489.844 239.129 493.066 239.129H497.461C504.492 239.129 508.008 242.156 508.008 248.211C508.008 254.07 503.75 257 495.234 257C491.543 257 487.891 256.512 484.277 255.535Z" fill="black"/>
<path d="M301.596 86H292.221L321.859 16.1758H331.869L361.654 86H351.645L342.611 64.0273H319.516L322.006 56.7031H339.584L326.547 25.0625L301.596 86ZM380.209 16.1758V86H371.176V16.1758H380.209ZM429.33 16.1758L397.885 49.1348L430.014 86H417.465L388.998 52.4062V46.9375L417.904 16.1758H429.33ZM485.189 16.1758V23.5H448.568V46.9375H483.48V54.2617H448.568V78.6758H485.922V86H439.535V16.1758H485.189ZM299.301 186V116.176H329.086C342.367 116.176 349.008 121.758 349.008 132.924C349.008 142.006 342.514 148.728 329.525 153.09L353.5 186H341.586L319.369 154.604V148.695C332.715 146.579 339.389 141.452 339.389 133.314C339.389 126.869 335.678 123.646 328.256 123.646H308.334V186H299.301ZM372.104 116.176V186H363.07V116.176H372.104ZM421.225 116.176L389.779 149.135L421.908 186H409.359L380.893 152.406V146.938L409.799 116.176H421.225Z" fill="black"/>
</svg>
