<svg xmlns="http://www.w3.org/2000/svg" viewBox="0 0 305 305"><defs><style>.cls-1{fill:none;stroke:#fff;stroke-miterlimit:10;stroke-width:5px;}.cls-2{fill:#fff;}</style></defs><title>makerkologo</title><g id="Layer_2" data-name="Layer 2"><g id="Layer_1-2" data-name="Layer 1"><circle class="cls-1" cx="152.5" cy="152.5" r="150"/><path class="cls-2" d="M41.68,102.54h22.1v6.7H49.89v8.26h13v6.65h-13v14.54H41.68Z"/><path class="cls-2" d="M74.78,129.41l-2.58,9.28H63.73l11.05-36.15H85.51l11.21,36.15h-8.8l-2.79-9.28ZM84,123.29l-2.25-7.67c-.65-2.14-1.29-4.82-1.83-7h-.1c-.54,2.15-1.08,4.88-1.67,7L76,123.29Z"/><path class="cls-2" d="M101.55,103a64.87,64.87,0,0,1,10.56-.75c5,0,8,.48,10.67,2a7.85,7.85,0,0,1,4.35,7.08c0,3.21-1.88,6.22-5.95,7.72v.11c4.13,1.12,7.18,4.23,7.18,8.9a9.63,9.63,0,0,1-3.75,7.67c-2.63,2.09-7,3.27-14.21,3.27a64.68,64.68,0,0,1-8.85-.53Zm8.09,13.84h2.69c4.29,0,6.59-1.77,6.59-4.45s-2.09-4.19-5.79-4.19a21.86,21.86,0,0,0-3.49.22Zm0,16a25.25,25.25,0,0,0,3.17.11c3.7,0,7-1.45,7-5.2s-3.27-5.1-7.35-5.1h-2.79Z"/><path class="cls-2" d="M142.15,102.54v13.89h13.46V102.54h8.15v36.15h-8.15V123.56H142.15v15.13h-8.21V102.54Z"/><path class="cls-2" d="M179.05,102.54v20.81c0,6.22,2.36,9.38,6.54,9.38s6.66-3,6.66-9.38V102.54h8.15v20.27c0,11.16-5.63,16.47-15.07,16.47-9.12,0-14.48-5.05-14.48-16.58V102.54Z"/><path class="cls-2" d="M207.48,103a65.1,65.1,0,0,1,10.57-.75c5,0,8,.48,10.67,2a7.86,7.86,0,0,1,4.34,7.08c0,3.21-1.87,6.22-5.95,7.72v.11c4.13,1.12,7.19,4.23,7.19,8.9a9.61,9.61,0,0,1-3.76,7.67c-2.63,2.09-7,3.27-14.21,3.27a64.8,64.8,0,0,1-8.85-.53Zm8.1,13.84h2.68c4.29,0,6.6-1.77,6.6-4.45s-2.09-4.19-5.8-4.19a21.81,21.81,0,0,0-3.48.22Zm0,16a25.08,25.08,0,0,0,3.16.11c3.7,0,7-1.45,7-5.2s-3.28-5.1-7.35-5.1h-2.79Z"/><path class="cls-2" d="M240.15,130.27a20.88,20.88,0,0,0,9.06,2.25c3.75,0,5.74-1.56,5.74-3.92s-1.72-3.54-6.06-5.09c-6-2.09-9.92-5.42-9.92-10.68,0-6.16,5.14-10.88,13.67-10.88a22.27,22.27,0,0,1,9.23,1.82l-1.83,6.6a17.09,17.09,0,0,0-7.56-1.72c-3.54,0-5.25,1.61-5.25,3.49,0,2.3,2,3.32,6.7,5.09,6.38,2.36,9.39,5.69,9.39,10.78,0,6.06-4.67,11.27-14.59,11.27A23.55,23.55,0,0,1,238.48,137Z"/><path class="cls-2" d="M77.17,203.05V166.9h9.54l7.51,13.25a104.11,104.11,0,0,1,5.9,12.39h.16a136,136,0,0,1-.69-15.12V166.9h7.5v36.15H98.51l-7.72-13.94a132.79,132.79,0,0,1-6.28-12.77l-.16.06c.22,4.77.33,9.87.33,15.77v10.88Z"/><path class="cls-2" d="M135.68,187.77h-13.3v8.58h14.86v6.7H114.18V166.9h22.31v6.71H122.38v7.51h13.3Z"/><path class="cls-2" d="M142.82,167.39a66.83,66.83,0,0,1,11.05-.75c5,0,8.63,1,11,2.89a10.59,10.59,0,0,1,3.86,8.37,11.54,11.54,0,0,1-3.33,8.58c-2.79,2.63-6.92,3.81-11.74,3.81a21.9,21.9,0,0,1-2.79-.16v12.92h-8.1Zm8.1,16.41a12.56,12.56,0,0,0,2.73.21c4.35,0,7-2.2,7-5.9,0-3.32-2.31-5.31-6.38-5.31a13.38,13.38,0,0,0-3.38.33Z"/><path class="cls-2" d="M179.19,193.77l-2.58,9.28h-8.47l11.05-36.15h10.72l11.21,36.15h-8.79l-2.79-9.28Zm9.17-6.11L186.1,180c-.64-2.14-1.28-4.83-1.82-7h-.11c-.53,2.14-1.07,4.88-1.66,7l-2.14,7.67Z"/><path class="cls-2" d="M206,166.9h8.21v29.29h14.37v6.86H206Z"/></g></g></svg>